<?xml version="1.0" encoding="UTF-8"?>
<svg xmlns="http://www.w3.org/2000/svg" xmlns:xlink="http://www.w3.org/1999/xlink" width="129px" height="160px" viewBox="0 0 129 160" version="1.1">
<g id="surface1">
<path style=" stroke:none;fill-rule:nonzero;fill:rgb(65.882353%,0%,18.823529%);fill-opacity:1;" d="M 77.082031 84.882812 C 74.417969 84.921875 77.585938 86.257812 81.066406 86.792969 C 82.027344 86.042969 82.898438 85.28125 83.675781 84.546875 C 81.507812 85.074219 79.304688 85.085938 77.082031 84.882812 "/>
<path style=" stroke:none;fill-rule:nonzero;fill:rgb(65.882353%,0%,18.823529%);fill-opacity:1;" d="M 91.382812 81.324219 C 92.96875 79.136719 94.128906 76.738281 94.535156 74.261719 C 94.179688 76.027344 93.21875 77.550781 92.316406 79.160156 C 87.335938 82.292969 91.847656 77.300781 92.3125 75.402344 C 86.957031 82.136719 91.578125 79.441406 91.382812 81.324219 "/>
<path style=" stroke:none;fill-rule:nonzero;fill:rgb(65.882353%,0%,18.823529%);fill-opacity:1;" d="M 96.664062 67.597656 C 96.984375 62.804688 95.71875 64.320312 95.292969 66.148438 C 95.789062 66.40625 96.183594 69.527344 96.664062 67.597656 "/>
<path style=" stroke:none;fill-rule:nonzero;fill:rgb(65.882353%,0%,18.823529%);fill-opacity:1;" d="M 66.980469 2.074219 C 68.402344 2.328125 70.050781 2.523438 69.820312 2.863281 C 71.375 2.519531 71.726562 2.207031 66.980469 2.074219 "/>
<path style=" stroke:none;fill-rule:nonzero;fill:rgb(65.882353%,0%,18.823529%);fill-opacity:1;" d="M 69.820312 2.863281 L 68.816406 3.070312 L 69.75 2.988281 L 69.820312 2.863281 "/>
<path style=" stroke:none;fill-rule:nonzero;fill:rgb(65.882353%,0%,18.823529%);fill-opacity:1;" d="M 114.160156 69.417969 C 114.320312 73.722656 112.898438 75.808594 111.621094 79.507812 L 109.316406 80.65625 C 107.433594 84.3125 109.5 82.980469 108.152344 85.886719 C 105.210938 88.5 99.222656 94.066406 97.308594 94.574219 C 95.910156 94.542969 98.253906 92.925781 98.5625 92.289062 C 94.625 94.992188 95.402344 96.347656 89.378906 97.988281 L 89.203125 97.597656 C 74.347656 104.578125 53.714844 90.742188 53.984375 71.863281 C 53.828125 73.0625 53.535156 72.761719 53.207031 73.246094 C 52.4375 63.53125 57.695312 53.773438 66.5625 49.792969 C 75.230469 45.503906 85.398438 47.261719 91.609375 53.046875 C 88.199219 48.582031 81.40625 43.847656 73.359375 44.289062 C 65.472656 44.414062 58.097656 49.421875 55.636719 54.855469 C 51.597656 57.394531 51.128906 64.648438 49.371094 65.976562 C 47.003906 83.363281 53.824219 90.878906 65.363281 99.714844 C 67.179688 100.9375 65.875 101.121094 66.121094 102.054688 C 62.289062 100.261719 58.777344 97.550781 55.890625 94.238281 C 57.421875 96.476562 59.074219 98.65625 61.210938 100.367188 C 57.597656 99.140625 52.765625 91.613281 51.355469 91.308594 C 57.589844 102.453125 76.640625 110.859375 86.617188 106.6875 C 82 106.859375 76.136719 106.785156 70.949219 104.867188 C 68.773438 103.75 65.808594 101.429688 66.339844 100.992188 C 79.953125 106.074219 94.015625 104.84375 105.796875 95.40625 C 108.792969 93.074219 112.070312 89.109375 113.015625 89.054688 C 111.589844 91.195312 113.257812 90.082031 112.164062 91.972656 C 115.148438 87.160156 110.867188 90.015625 115.25 83.664062 L 116.871094 85.890625 C 116.265625 81.898438 121.832031 77.046875 121.269531 70.730469 C 122.546875 68.796875 122.695312 72.808594 121.339844 77.253906 C 123.21875 72.324219 121.832031 71.53125 122.316406 67.460938 C 122.839844 68.828125 123.523438 70.28125 123.875 71.726562 C 122.652344 66.960938 125.132812 63.703125 125.746094 60.933594 C 125.140625 60.664062 123.855469 63.039062 123.5625 57.410156 C 123.605469 54.96875 124.242188 56.128906 124.488281 55.527344 C 124.007812 55.253906 122.75 53.378906 121.980469 49.785156 C 122.539062 48.941406 123.46875 51.976562 124.222656 52.097656 C 123.738281 49.242188 122.898438 47.0625 122.867188 44.871094 C 120.65625 40.257812 122.085938 45.484375 120.292969 42.890625 C 117.941406 35.558594 122.242188 41.1875 122.535156 37.859375 C 126.097656 43.019531 128.132812 51.015625 129.0625 54.328125 C 128.351562 50.289062 127.203125 46.375 125.796875 42.589844 C 126.878906 43.046875 124.054688 34.28125 127.203125 40.085938 C 123.839844 27.710938 112.800781 16.152344 102.644531 10.726562 C 103.886719 11.863281 105.457031 13.289062 104.890625 13.511719 C 99.839844 10.507812 100.730469 10.273438 100.007812 9.003906 C 95.890625 7.332031 95.621094 9.140625 92.894531 9.007812 C 85.140625 4.898438 83.648438 5.335938 76.511719 2.761719 L 76.835938 4.277344 C 71.699219 2.566406 70.847656 4.925781 65.296875 4.28125 C 64.957031 4.019531 67.074219 3.328125 68.816406 3.074219 C 63.851562 3.730469 64.082031 2.097656 59.222656 3.253906 C 60.421875 2.414062 61.6875 1.859375 62.964844 1.144531 C 58.914062 1.390625 53.292969 3.5 55.03125 1.582031 C 48.421875 4.527344 36.6875 8.664062 30.101562 14.832031 L 29.894531 13.449219 C 26.878906 17.066406 16.738281 24.257812 15.929688 28.945312 L 15.121094 29.132812 C 13.550781 31.789062 12.535156 34.800781 11.292969 37.535156 C 9.238281 41.03125 8.28125 38.878906 8.574219 39.425781 C 4.535156 47.609375 2.527344 54.484375 0.792969 60.121094 C 2.03125 61.96875 0.824219 71.226562 1.292969 78.636719 C -0.738281 115.234375 27 150.769531 57.316406 158.976562 C 61.761719 160.5625 68.371094 160.503906 73.992188 160.664062 C 67.359375 158.769531 66.5 159.660156 60.042969 157.410156 C 55.382812 155.21875 54.359375 152.714844 51.058594 149.851562 L 52.363281 152.160156 C 45.890625 149.871094 48.601562 149.324219 43.332031 147.660156 L 44.730469 145.839844 C 42.628906 145.679688 39.171875 142.304688 38.226562 140.4375 L 35.929688 140.527344 C 33.171875 137.128906 31.703125 134.675781 31.808594 132.777344 L 31.066406 134.097656 C 30.226562 132.65625 20.921875 121.347656 25.75 123.980469 C 24.851562 123.160156 23.660156 122.648438 22.367188 120.300781 L 23.351562 119.179688 C 21.027344 116.191406 19.074219 112.363281 19.222656 111.085938 C 20.460938 112.761719 21.320312 113.074219 22.171875 113.359375 C 16.304688 98.8125 15.976562 112.558594 11.53125 98.550781 L 12.472656 98.476562 C 11.753906 97.394531 11.316406 96.214844 10.734375 95.058594 L 11.144531 90.984375 C 6.921875 86.105469 9.960938 70.234375 10.570312 61.53125 C 10.996094 57.992188 14.097656 54.226562 16.457031 48.316406 L 15.019531 48.070312 C 17.769531 43.277344 30.71875 28.828125 36.714844 29.570312 C 39.617188 25.925781 36.136719 29.558594 35.570312 28.640625 C 41.949219 22.042969 43.953125 23.980469 48.261719 22.792969 C 52.90625 20.039062 44.273438 23.867188 46.476562 21.742188 C 54.503906 19.691406 52.167969 17.085938 62.640625 16.042969 C 63.742188 16.671875 60.074219 17.015625 59.15625 17.828125 C 65.84375 14.558594 80.320312 15.304688 89.726562 19.644531 C 100.636719 24.738281 112.894531 39.800781 113.378906 53.96875 L 113.929688 54.117188 C 113.652344 59.75 114.792969 66.265625 112.8125 72.25 L 114.160156 69.417969 "/>
<path style=" stroke:none;fill-rule:nonzero;fill:rgb(65.882353%,0%,18.823529%);fill-opacity:1;" d="M 48 88.539062 L 47.625 90.40625 C 49.378906 92.78125 50.765625 95.355469 53.003906 97.214844 C 51.394531 94.078125 50.199219 92.78125 48 88.539062 "/>
<path style=" stroke:none;fill-rule:nonzero;fill:rgb(65.882353%,0%,18.823529%);fill-opacity:1;" d="M 52.140625 88.375 C 51.214844 87.351562 50.664062 86.121094 50.050781 84.890625 C 50.636719 87.050781 51.839844 88.90625 52.960938 90.792969 L 52.140625 88.375 "/>
<path style=" stroke:none;fill-rule:nonzero;fill:rgb(65.882353%,0%,18.823529%);fill-opacity:1;" d="M 125.394531 72.46875 L 125.003906 73.449219 C 124.285156 78.542969 122.734375 83.582031 120.359375 88.253906 C 122.984375 83.324219 124.683594 77.933594 125.394531 72.46875 "/>
<path style=" stroke:none;fill-rule:nonzero;fill:rgb(65.882353%,0%,18.823529%);fill-opacity:1;" d="M 67.503906 0.796875 C 69.308594 0.136719 71.933594 0.433594 73.847656 0 C 71.355469 0.207031 68.875 0.332031 66.425781 0.648438 L 67.503906 0.796875 "/>
<path style=" stroke:none;fill-rule:nonzero;fill:rgb(65.882353%,0%,18.823529%);fill-opacity:1;" d="M 4.257812 34.398438 C 4.671875 38.238281 1.367188 39.730469 4.992188 37.195312 C 6.933594 32.824219 4.230469 35.988281 4.257812 34.398438 "/>
<path style=" stroke:none;fill-rule:nonzero;fill:rgb(65.882353%,0%,18.823529%);fill-opacity:1;" d="M 0 52.171875 C 0.835938 49.609375 0.984375 48.074219 1.304688 46.589844 C -1.003906 49.539062 0.242188 50.164062 0 52.171875 "/>
</g>
</svg>
