<?xml version="1.0" encoding="UTF-8"?>
<svg xmlns="http://www.w3.org/2000/svg" xmlns:xlink="http://www.w3.org/1999/xlink" width="174px" height="216px" viewBox="0 0 174 216" version="1.1">
<g id="surface1">
<path style=" stroke:none;fill-rule:nonzero;fill:rgb(65.882353%,0%,18.823529%);fill-opacity:1;" d="M 103.972656 114.59375 C 100.378906 114.644531 104.652344 116.445312 109.34375 117.167969 C 110.640625 116.15625 111.816406 115.132812 112.863281 114.136719 C 109.941406 114.851562 106.96875 114.867188 103.972656 114.59375 "/>
<path style=" stroke:none;fill-rule:nonzero;fill:rgb(65.882353%,0%,18.823529%);fill-opacity:1;" d="M 123.261719 109.785156 C 125.402344 106.832031 126.960938 103.597656 127.511719 100.253906 C 127.03125 102.636719 125.738281 104.695312 124.519531 106.867188 C 117.800781 111.097656 123.886719 104.355469 124.515625 101.792969 C 117.292969 110.886719 123.523438 107.246094 123.261719 109.785156 "/>
<path style=" stroke:none;fill-rule:nonzero;fill:rgb(65.882353%,0%,18.823529%);fill-opacity:1;" d="M 130.382812 91.257812 C 130.816406 84.785156 129.109375 86.832031 128.535156 89.300781 C 129.203125 89.648438 129.734375 93.863281 130.382812 91.257812 "/>
<path style=" stroke:none;fill-rule:nonzero;fill:rgb(65.882353%,0%,18.823529%);fill-opacity:1;" d="M 90.34375 2.796875 C 92.261719 3.140625 94.488281 3.40625 94.175781 3.863281 C 96.273438 3.402344 96.75 2.980469 90.34375 2.796875 "/>
<path style=" stroke:none;fill-rule:nonzero;fill:rgb(65.882353%,0%,18.823529%);fill-opacity:1;" d="M 94.175781 3.863281 L 92.820312 4.144531 L 94.082031 4.03125 L 94.175781 3.863281 "/>
<path style=" stroke:none;fill-rule:nonzero;fill:rgb(65.882353%,0%,18.823529%);fill-opacity:1;" d="M 153.984375 93.710938 C 154.199219 99.523438 152.285156 102.34375 150.558594 107.335938 L 147.453125 108.886719 C 144.910156 113.824219 147.699219 112.023438 145.878906 115.949219 C 141.910156 119.476562 133.835938 126.988281 131.253906 127.675781 C 129.367188 127.632812 132.53125 125.449219 132.945312 124.59375 C 127.632812 128.238281 128.683594 130.066406 120.558594 132.285156 L 120.320312 131.757812 C 100.285156 141.183594 72.453125 122.503906 72.816406 97.015625 C 72.605469 98.632812 72.210938 98.226562 71.765625 98.882812 C 70.730469 85.769531 77.820312 72.597656 89.78125 67.21875 C 101.476562 61.429688 115.1875 63.804688 123.566406 71.613281 C 118.964844 65.585938 109.804688 59.195312 98.949219 59.792969 C 88.3125 59.960938 78.367188 66.71875 75.046875 74.054688 C 69.597656 77.484375 68.964844 87.277344 66.59375 89.066406 C 63.398438 112.542969 72.601562 122.683594 88.164062 134.613281 C 90.617188 136.265625 88.855469 136.515625 89.1875 137.773438 C 84.015625 135.351562 79.28125 131.695312 75.386719 127.21875 C 77.453125 130.242188 79.683594 133.183594 82.5625 135.492188 C 77.6875 133.84375 71.175781 123.679688 69.273438 123.265625 C 77.679688 138.3125 103.375 149.65625 116.832031 144.03125 C 110.605469 144.261719 102.695312 144.15625 95.699219 141.570312 C 92.761719 140.058594 88.765625 136.929688 89.480469 136.34375 C 107.84375 143.203125 126.8125 141.539062 142.703125 128.800781 C 146.746094 125.652344 151.160156 120.296875 152.4375 120.222656 C 150.515625 123.113281 152.765625 121.613281 151.289062 124.164062 C 155.316406 117.667969 149.539062 121.519531 155.453125 112.945312 L 157.636719 115.953125 C 156.824219 110.5625 164.335938 104.015625 163.570312 95.484375 C 165.292969 92.878906 165.492188 98.292969 163.664062 104.292969 C 166.203125 97.636719 164.335938 96.566406 164.984375 91.074219 C 165.691406 92.921875 166.613281 94.882812 167.089844 96.828125 C 165.4375 90.398438 168.785156 85.996094 169.613281 82.261719 C 168.796875 81.898438 167.0625 85.105469 166.664062 77.507812 C 166.722656 74.207031 167.585938 75.777344 167.914062 74.964844 C 167.269531 74.59375 165.566406 72.0625 164.535156 67.210938 C 165.285156 66.070312 166.539062 70.164062 167.558594 70.335938 C 166.902344 66.476562 165.773438 63.535156 165.726562 60.574219 C 162.746094 54.347656 164.671875 61.402344 162.253906 57.898438 C 159.082031 48.007812 164.886719 55.605469 165.277344 51.109375 C 170.085938 58.074219 172.828125 68.871094 174.085938 73.34375 C 173.125 67.890625 171.574219 62.609375 169.679688 57.496094 C 171.140625 58.113281 167.328125 46.28125 171.578125 54.117188 C 167.039062 37.410156 152.148438 21.804688 138.449219 14.480469 C 140.125 16.015625 142.242188 17.941406 141.480469 18.242188 C 134.671875 14.1875 135.867188 13.871094 134.890625 12.15625 C 129.34375 9.898438 128.976562 12.339844 125.300781 12.160156 C 114.84375 6.613281 112.824219 7.203125 103.199219 3.726562 L 103.636719 5.773438 C 96.707031 3.464844 95.5625 6.648438 88.074219 5.78125 C 87.617188 5.425781 90.472656 4.492188 92.824219 4.148438 C 86.125 5.035156 86.4375 2.828125 79.882812 4.394531 C 81.496094 3.261719 83.207031 2.511719 84.929688 1.546875 C 79.464844 1.878906 71.886719 4.726562 74.226562 2.136719 C 65.3125 6.113281 49.484375 11.695312 40.605469 20.023438 L 40.324219 18.15625 C 36.253906 23.042969 22.574219 32.746094 21.484375 39.074219 L 20.398438 39.328125 C 18.28125 42.914062 16.910156 46.980469 15.230469 50.671875 C 12.460938 55.390625 11.171875 52.484375 11.5625 53.226562 C 6.117188 64.273438 3.410156 73.554688 1.070312 81.164062 C 2.738281 83.65625 1.113281 96.15625 1.742188 106.160156 C -0.992188 155.566406 36.417969 203.539062 77.3125 214.617188 C 83.304688 216.761719 92.21875 216.679688 99.800781 216.898438 C 90.855469 214.339844 89.699219 215.542969 80.984375 212.503906 C 74.699219 209.542969 73.320312 206.164062 68.871094 202.300781 L 70.632812 205.414062 C 61.898438 202.324219 65.554688 201.589844 58.449219 199.339844 L 60.332031 196.882812 C 57.503906 196.667969 52.835938 192.113281 51.558594 189.589844 L 48.464844 189.710938 C 44.742188 185.121094 42.761719 181.8125 42.90625 179.253906 L 41.90625 181.035156 C 40.773438 179.089844 28.21875 163.820312 34.730469 167.375 C 33.523438 166.269531 31.914062 165.574219 30.171875 162.40625 L 31.496094 160.890625 C 28.363281 156.859375 25.726562 151.691406 25.929688 149.96875 C 27.601562 152.226562 28.761719 152.648438 29.90625 153.035156 C 21.992188 133.398438 21.550781 151.953125 15.554688 133.046875 L 16.824219 132.945312 C 15.851562 131.480469 15.261719 129.890625 14.480469 128.328125 L 15.03125 122.828125 C 9.335938 116.242188 13.4375 94.816406 14.261719 83.066406 C 14.828125 78.289062 19.015625 73.203125 22.199219 65.226562 L 20.261719 64.894531 C 23.96875 58.425781 41.433594 38.917969 49.519531 39.921875 C 53.4375 35 48.742188 39.902344 47.976562 38.664062 C 56.582031 29.757812 59.289062 32.371094 65.097656 30.769531 C 71.359375 27.050781 59.71875 32.21875 62.691406 29.351562 C 73.519531 26.585938 70.363281 23.0625 84.488281 21.660156 C 85.980469 22.507812 81.03125 22.96875 79.789062 24.070312 C 88.8125 19.65625 108.339844 20.660156 121.023438 26.519531 C 135.742188 33.398438 152.277344 53.730469 152.929688 72.859375 L 153.671875 73.058594 C 153.296875 80.664062 154.835938 89.457031 152.167969 97.535156 L 153.984375 93.710938 "/>
<path style=" stroke:none;fill-rule:nonzero;fill:rgb(65.882353%,0%,18.823529%);fill-opacity:1;" d="M 64.742188 119.527344 L 64.238281 122.046875 C 66.601562 125.257812 68.476562 128.730469 71.492188 131.238281 C 69.320312 127.003906 67.710938 125.253906 64.742188 119.527344 "/>
<path style=" stroke:none;fill-rule:nonzero;fill:rgb(65.882353%,0%,18.823529%);fill-opacity:1;" d="M 70.328125 119.308594 C 69.078125 117.925781 68.339844 116.261719 67.511719 114.605469 C 68.300781 117.519531 69.925781 120.023438 71.433594 122.566406 L 70.328125 119.308594 "/>
<path style=" stroke:none;fill-rule:nonzero;fill:rgb(65.882353%,0%,18.823529%);fill-opacity:1;" d="M 169.136719 97.832031 L 168.609375 99.15625 C 167.640625 106.03125 165.550781 112.835938 162.347656 119.144531 C 165.886719 112.488281 168.175781 105.207031 169.136719 97.832031 "/>
<path style=" stroke:none;fill-rule:nonzero;fill:rgb(65.882353%,0%,18.823529%);fill-opacity:1;" d="M 91.054688 1.074219 C 93.484375 0.183594 97.027344 0.585938 99.605469 0 C 96.246094 0.28125 92.902344 0.449219 89.601562 0.875 L 91.054688 1.074219 "/>
<path style=" stroke:none;fill-rule:nonzero;fill:rgb(65.882353%,0%,18.823529%);fill-opacity:1;" d="M 5.742188 46.4375 C 6.304688 51.621094 1.84375 53.632812 6.730469 50.214844 C 9.351562 44.3125 5.707031 48.585938 5.742188 46.4375 "/>
<path style=" stroke:none;fill-rule:nonzero;fill:rgb(65.882353%,0%,18.823529%);fill-opacity:1;" d="M 0 70.429688 C 1.125 66.972656 1.328125 64.898438 1.761719 62.898438 C -1.351562 66.875 0.328125 67.722656 0 70.429688 "/>
</g>
</svg>
