<?xml version="1.0" encoding="UTF-8"?>
<svg xmlns="http://www.w3.org/2000/svg" xmlns:xlink="http://www.w3.org/1999/xlink" width="97px" height="120px" viewBox="0 0 97 120" version="1.1">
<g id="surface1">
<path style=" stroke:none;fill-rule:nonzero;fill:rgb(65.882353%,0%,18.823529%);fill-opacity:1;" d="M 57.960938 63.664062 C 55.957031 63.691406 58.339844 64.691406 60.957031 65.09375 C 61.679688 64.53125 62.335938 63.960938 62.917969 63.410156 C 61.289062 63.808594 59.632812 63.816406 57.960938 63.664062 "/>
<path style=" stroke:none;fill-rule:nonzero;fill:rgb(65.882353%,0%,18.823529%);fill-opacity:1;" d="M 68.714844 60.992188 C 69.90625 59.351562 70.777344 57.554688 71.085938 55.695312 C 70.816406 57.019531 70.09375 58.164062 69.417969 59.371094 C 65.671875 61.722656 69.0625 57.976562 69.414062 56.550781 C 65.386719 61.601562 68.859375 59.582031 68.714844 60.992188 "/>
<path style=" stroke:none;fill-rule:nonzero;fill:rgb(65.882353%,0%,18.823529%);fill-opacity:1;" d="M 72.683594 50.699219 C 72.925781 47.101562 71.972656 48.238281 71.652344 49.613281 C 72.027344 49.804688 72.324219 52.148438 72.683594 50.699219 "/>
<path style=" stroke:none;fill-rule:nonzero;fill:rgb(65.882353%,0%,18.823529%);fill-opacity:1;" d="M 50.363281 1.554688 C 51.433594 1.746094 52.675781 1.890625 52.5 2.148438 C 53.671875 1.890625 53.933594 1.65625 50.363281 1.554688 "/>
<path style=" stroke:none;fill-rule:nonzero;fill:rgb(65.882353%,0%,18.823529%);fill-opacity:1;" d="M 52.5 2.148438 L 51.746094 2.300781 L 52.449219 2.238281 L 52.5 2.148438 "/>
<path style=" stroke:none;fill-rule:nonzero;fill:rgb(65.882353%,0%,18.823529%);fill-opacity:1;" d="M 85.839844 52.0625 C 85.960938 55.292969 84.894531 56.859375 83.933594 59.632812 L 82.199219 60.492188 C 80.78125 63.234375 82.335938 62.234375 81.324219 64.414062 C 79.109375 66.375 74.609375 70.550781 73.167969 70.929688 C 72.117188 70.90625 73.882812 69.691406 74.113281 69.21875 C 71.152344 71.246094 71.738281 72.261719 67.207031 73.492188 L 67.074219 73.199219 C 55.90625 78.433594 40.390625 68.058594 40.59375 53.898438 C 40.476562 54.796875 40.253906 54.570312 40.007812 54.933594 C 39.429688 47.648438 43.382812 40.332031 50.050781 37.34375 C 56.570312 34.125 64.214844 35.445312 68.882812 39.785156 C 66.320312 36.4375 61.210938 32.886719 55.160156 33.21875 C 49.234375 33.3125 43.6875 37.066406 41.835938 41.140625 C 38.800781 43.046875 38.445312 48.488281 37.125 49.480469 C 35.34375 62.523438 40.472656 68.15625 49.148438 74.785156 C 50.515625 75.703125 49.535156 75.84375 49.71875 76.542969 C 46.835938 75.195312 44.195312 73.164062 42.027344 70.679688 C 43.175781 72.359375 44.421875 73.992188 46.027344 75.273438 C 43.308594 74.355469 39.675781 68.710938 38.617188 68.480469 C 43.304688 76.839844 57.628906 83.144531 65.128906 80.015625 C 61.660156 80.144531 57.25 80.085938 53.351562 78.652344 C 51.710938 77.8125 49.484375 76.070312 49.882812 75.746094 C 60.121094 79.558594 70.695312 78.632812 79.554688 71.554688 C 81.808594 69.808594 84.269531 66.832031 84.980469 66.789062 C 83.910156 68.394531 85.164062 67.5625 84.339844 68.980469 C 86.585938 65.371094 83.363281 67.511719 86.660156 62.746094 L 87.878906 64.417969 C 87.425781 61.421875 91.613281 57.785156 91.1875 53.046875 C 92.148438 51.597656 92.257812 54.605469 91.238281 57.941406 C 92.652344 54.242188 91.613281 53.648438 91.976562 50.597656 C 92.367188 51.621094 92.882812 52.710938 93.148438 53.792969 C 92.226562 50.222656 94.09375 47.777344 94.554688 45.699219 C 94.097656 45.5 93.132812 47.28125 92.910156 43.058594 C 92.945312 41.226562 93.421875 42.097656 93.609375 41.648438 C 93.246094 41.441406 92.300781 40.035156 91.722656 37.339844 C 92.140625 36.707031 92.839844 38.980469 93.410156 39.074219 C 93.042969 36.929688 92.414062 35.296875 92.386719 33.652344 C 90.726562 30.191406 91.800781 34.113281 90.453125 32.167969 C 88.683594 26.671875 91.917969 30.890625 92.136719 28.394531 C 94.816406 32.261719 96.347656 38.261719 97.046875 40.746094 C 96.511719 37.714844 95.648438 34.78125 94.589844 31.941406 C 95.40625 32.285156 93.28125 25.710938 95.648438 30.0625 C 93.117188 20.785156 84.816406 12.113281 77.183594 8.042969 C 78.117188 8.898438 79.296875 9.964844 78.871094 10.132812 C 75.074219 7.882812 75.742188 7.707031 75.199219 6.753906 C 72.105469 5.5 71.902344 6.855469 69.851562 6.753906 C 64.019531 3.671875 62.898438 4 57.53125 2.070312 L 57.773438 3.207031 C 53.910156 1.925781 53.273438 3.691406 49.097656 3.210938 C 48.84375 3.011719 50.4375 2.496094 51.746094 2.304688 C 48.011719 2.796875 48.1875 1.570312 44.53125 2.441406 C 45.433594 1.8125 46.386719 1.394531 47.347656 0.859375 C 44.300781 1.042969 40.074219 2.625 41.378906 1.1875 C 36.410156 3.394531 27.585938 6.496094 22.636719 11.125 L 22.480469 10.085938 C 20.210938 12.800781 12.585938 18.191406 11.976562 21.707031 L 11.371094 21.851562 C 10.191406 23.84375 9.425781 26.101562 8.492188 28.148438 C 6.945312 30.773438 6.226562 29.160156 6.445312 29.570312 C 3.410156 35.707031 1.902344 40.863281 0.597656 45.09375 C 1.527344 46.476562 0.621094 53.421875 0.972656 58.976562 C -0.554688 86.425781 20.300781 113.078125 43.097656 119.230469 C 46.441406 120.421875 51.410156 120.375 55.636719 120.5 C 50.648438 119.078125 50.003906 119.746094 45.148438 118.058594 C 41.644531 116.414062 40.875 114.535156 38.394531 112.390625 L 39.375 114.117188 C 34.507812 112.402344 36.542969 111.996094 32.585938 110.746094 L 33.632812 109.378906 C 32.054688 109.261719 29.453125 106.730469 28.742188 105.328125 L 27.015625 105.394531 C 24.945312 102.84375 23.839844 101.007812 23.917969 99.585938 L 23.363281 100.574219 C 22.730469 99.492188 15.730469 91.011719 19.363281 92.984375 C 18.6875 92.371094 17.792969 91.984375 16.820312 90.226562 L 17.558594 89.382812 C 15.8125 87.144531 14.34375 84.273438 14.453125 83.316406 C 15.386719 84.570312 16.03125 84.804688 16.671875 85.019531 C 12.261719 74.109375 12.011719 84.417969 8.671875 73.914062 L 9.378906 73.859375 C 8.835938 73.042969 8.507812 72.160156 8.070312 71.292969 L 8.378906 68.238281 C 5.203125 64.578125 7.492188 52.675781 7.949219 46.148438 C 8.265625 43.496094 10.601562 40.667969 12.375 36.238281 L 11.292969 36.050781 C 13.363281 32.457031 23.097656 21.621094 27.605469 22.179688 C 29.789062 19.445312 27.171875 22.167969 26.746094 21.480469 C 31.542969 16.53125 33.050781 17.984375 36.289062 17.09375 C 39.78125 15.027344 33.292969 17.898438 34.949219 16.308594 C 40.984375 14.769531 39.226562 12.8125 47.101562 12.035156 C 47.929688 12.503906 45.171875 12.761719 44.480469 13.371094 C 49.511719 10.921875 60.394531 11.476562 67.46875 14.734375 C 75.671875 18.554688 84.890625 29.851562 85.253906 40.476562 L 85.667969 40.589844 C 85.457031 44.8125 86.316406 49.699219 84.828125 54.1875 L 85.839844 52.0625 "/>
<path style=" stroke:none;fill-rule:nonzero;fill:rgb(65.882353%,0%,18.823529%);fill-opacity:1;" d="M 36.09375 66.40625 L 35.8125 67.804688 C 37.128906 69.585938 38.171875 71.519531 39.855469 72.910156 C 38.644531 70.558594 37.746094 69.585938 36.09375 66.40625 "/>
<path style=" stroke:none;fill-rule:nonzero;fill:rgb(65.882353%,0%,18.823529%);fill-opacity:1;" d="M 39.207031 66.28125 C 38.507812 65.515625 38.097656 64.589844 37.636719 63.667969 C 38.078125 65.289062 38.980469 66.679688 39.824219 68.09375 L 39.207031 66.28125 "/>
<path style=" stroke:none;fill-rule:nonzero;fill:rgb(65.882353%,0%,18.823529%);fill-opacity:1;" d="M 94.289062 54.351562 L 93.992188 55.085938 C 93.453125 58.90625 92.289062 62.6875 90.503906 66.191406 C 92.476562 62.492188 93.753906 58.449219 94.289062 54.351562 "/>
<path style=" stroke:none;fill-rule:nonzero;fill:rgb(65.882353%,0%,18.823529%);fill-opacity:1;" d="M 50.761719 0.597656 C 52.113281 0.101562 54.089844 0.324219 55.527344 0 C 53.65625 0.15625 51.789062 0.25 49.949219 0.488281 L 50.761719 0.597656 "/>
<path style=" stroke:none;fill-rule:nonzero;fill:rgb(65.882353%,0%,18.823529%);fill-opacity:1;" d="M 3.203125 25.800781 C 3.515625 28.679688 1.027344 29.796875 3.753906 27.898438 C 5.214844 24.617188 3.183594 26.992188 3.203125 25.800781 "/>
<path style=" stroke:none;fill-rule:nonzero;fill:rgb(65.882353%,0%,18.823529%);fill-opacity:1;" d="M 0 39.128906 C 0.628906 37.207031 0.742188 36.054688 0.980469 34.941406 C -0.753906 37.152344 0.183594 37.625 0 39.128906 "/>
</g>
</svg>
